# xmcd
# 
# Track frame offsets:
#     150
#     42765
#     89180
#     124017
#     149812
#     177945
#     207740
# 
# Disc length: 3427
# 
# Revision: 0
# Processed by: cddbd v1.5.2PL0 Copyright (c) Steve Scherf et al.
# Submitted via: BonkEnc v1.0.8
# 
DISCID=700d6107
DTITLE=富樫雅彦, 佐藤允彦, Jean-François Jenny-Clark - Autumn In Paris
DYEAR=1991
DGENRE=Contemporary Jazz
TTITLE0=Pause
TTITLE1=Valencia
TTITLE2=Unbalanceed
TTITLE3=Monk's Hat Blues
TTITLE4=Iniga Dani Ayo
TTITLE5=Deformation
TTITLE6=Alésia Afternoon
EXTD=
EXTT0=
EXTT1=
EXTT2=
EXTT3=
EXTT4=
EXTT5=
EXTT6=
PLAYORDER=
